<mxfile host="65bd71144e">
    <diagram id="LX3NrVUi2IdloEImj4LN" name="Page-1">
        <mxGraphModel dx="2612" dy="1811" grid="1" gridSize="10" guides="1" tooltips="1" connect="1" arrows="1" fold="1" page="1" pageScale="1" pageWidth="850" pageHeight="1100" math="0" shadow="0">
            <root>
                <mxCell id="0"/>
                <mxCell id="1" parent="0"/>
                <mxCell id="651" value="" style="rounded=0;whiteSpace=wrap;html=1;" parent="1" vertex="1">
                    <mxGeometry x="-420" y="1200" width="810" height="260" as="geometry"/>
                </mxCell>
                <mxCell id="484" value="" style="whiteSpace=wrap;html=1;aspect=fixed;labelBackgroundColor=#000000;strokeColor=#F0F0F0;" parent="1" vertex="1">
                    <mxGeometry x="-337.5" y="3990" width="670" height="670" as="geometry"/>
                </mxCell>
                <mxCell id="24" value="" style="shape=table;startSize=0;container=1;collapsible=0;childLayout=tableLayout;" parent="1" vertex="1">
                    <mxGeometry x="-550" y="-280" width="200" height="240" as="geometry"/>
                </mxCell>
                <mxCell id="25" value="" style="shape=tableRow;horizontal=0;startSize=0;swimlaneHead=0;swimlaneBody=0;top=0;left=0;bottom=0;right=0;collapsible=0;dropTarget=0;fillColor=#1ba1e2;points=[[0,0.5],[1,0.5]];portConstraint=eastwest;fontColor=#ffffff;strokeColor=#006EAF;" parent="24" vertex="1">
                    <mxGeometry width="200" height="40" as="geometry"/>
                </mxCell>
                <mxCell id="26" value="pengguna" style="shape=partialRectangle;html=1;whiteSpace=wrap;connectable=0;overflow=hidden;fillColor=none;top=0;left=0;bottom=0;right=0;pointerEvents=1;" parent="25" vertex="1">
                    <mxGeometry width="200" height="40" as="geometry">
                        <mxRectangle width="200" height="40" as="alternateBounds"/>
                    </mxGeometry>
                </mxCell>
                <mxCell id="27" value="" style="shape=tableRow;horizontal=0;startSize=0;swimlaneHead=0;swimlaneBody=0;top=0;left=0;bottom=0;right=0;collapsible=0;dropTarget=0;fillColor=none;points=[[0,0.5],[1,0.5]];portConstraint=eastwest;" parent="24" vertex="1">
                    <mxGeometry y="40" width="200" height="40" as="geometry"/>
                </mxCell>
                <mxCell id="28" value="ID_Pengguna (Primary Key)" style="shape=partialRectangle;html=1;whiteSpace=wrap;connectable=0;overflow=hidden;fillColor=none;top=0;left=0;bottom=0;right=0;pointerEvents=1;" parent="27" vertex="1">
                    <mxGeometry width="200" height="40" as="geometry">
                        <mxRectangle width="200" height="40" as="alternateBounds"/>
                    </mxGeometry>
                </mxCell>
                <mxCell id="29" value="" style="shape=tableRow;horizontal=0;startSize=0;swimlaneHead=0;swimlaneBody=0;top=0;left=0;bottom=0;right=0;collapsible=0;dropTarget=0;fillColor=none;points=[[0,0.5],[1,0.5]];portConstraint=eastwest;" parent="24" vertex="1">
                    <mxGeometry y="80" width="200" height="40" as="geometry"/>
                </mxCell>
                <mxCell id="30" value="Nama" style="shape=partialRectangle;html=1;whiteSpace=wrap;connectable=0;overflow=hidden;fillColor=none;top=0;left=0;bottom=0;right=0;pointerEvents=1;" parent="29" vertex="1">
                    <mxGeometry width="200" height="40" as="geometry">
                        <mxRectangle width="200" height="40" as="alternateBounds"/>
                    </mxGeometry>
                </mxCell>
                <mxCell id="31" value="" style="shape=tableRow;horizontal=0;startSize=0;swimlaneHead=0;swimlaneBody=0;top=0;left=0;bottom=0;right=0;collapsible=0;dropTarget=0;fillColor=none;points=[[0,0.5],[1,0.5]];portConstraint=eastwest;" parent="24" vertex="1">
                    <mxGeometry y="120" width="200" height="40" as="geometry"/>
                </mxCell>
                <mxCell id="32" value="Username" style="shape=partialRectangle;html=1;whiteSpace=wrap;connectable=0;overflow=hidden;fillColor=none;top=0;left=0;bottom=0;right=0;pointerEvents=1;" parent="31" vertex="1">
                    <mxGeometry width="200" height="40" as="geometry">
                        <mxRectangle width="200" height="40" as="alternateBounds"/>
                    </mxGeometry>
                </mxCell>
                <mxCell id="33" value="" style="shape=tableRow;horizontal=0;startSize=0;swimlaneHead=0;swimlaneBody=0;top=0;left=0;bottom=0;right=0;collapsible=0;dropTarget=0;fillColor=none;points=[[0,0.5],[1,0.5]];portConstraint=eastwest;" parent="24" vertex="1">
                    <mxGeometry y="160" width="200" height="40" as="geometry"/>
                </mxCell>
                <mxCell id="34" value="Password" style="shape=partialRectangle;html=1;whiteSpace=wrap;connectable=0;overflow=hidden;fillColor=none;top=0;left=0;bottom=0;right=0;pointerEvents=1;" parent="33" vertex="1">
                    <mxGeometry width="200" height="40" as="geometry">
                        <mxRectangle width="200" height="40" as="alternateBounds"/>
                    </mxGeometry>
                </mxCell>
                <mxCell id="35" value="" style="shape=tableRow;horizontal=0;startSize=0;swimlaneHead=0;swimlaneBody=0;top=0;left=0;bottom=0;right=0;collapsible=0;dropTarget=0;fillColor=none;points=[[0,0.5],[1,0.5]];portConstraint=eastwest;" parent="24" vertex="1">
                    <mxGeometry y="200" width="200" height="40" as="geometry"/>
                </mxCell>
                <mxCell id="36" value="Role (siswa, admin , &lt;br&gt;&lt;span style=&quot;white-space: pre;&quot;&gt;&#9;&lt;/span&gt;&amp;nbsp; super admin )" style="shape=partialRectangle;html=1;whiteSpace=wrap;connectable=0;overflow=hidden;fillColor=none;top=0;left=0;bottom=0;right=0;pointerEvents=1;" parent="35" vertex="1">
                    <mxGeometry width="200" height="40" as="geometry">
                        <mxRectangle width="200" height="40" as="alternateBounds"/>
                    </mxGeometry>
                </mxCell>
                <mxCell id="VkJ5TcABdocI_Z8cLHhA-128" style="edgeStyle=none;html=1;fontSize=13;" parent="1" source="37" target="58" edge="1">
                    <mxGeometry relative="1" as="geometry"/>
                </mxCell>
                <mxCell id="37" value="" style="shape=table;startSize=0;container=1;collapsible=0;childLayout=tableLayout;" parent="1" vertex="1">
                    <mxGeometry x="-540" width="180" height="200" as="geometry"/>
                </mxCell>
                <mxCell id="38" value="" style="shape=tableRow;horizontal=0;startSize=0;swimlaneHead=0;swimlaneBody=0;top=0;left=0;bottom=0;right=0;collapsible=0;dropTarget=0;fillColor=none;points=[[0,0.5],[1,0.5]];portConstraint=eastwest;" parent="37" vertex="1">
                    <mxGeometry width="180" height="40" as="geometry"/>
                </mxCell>
                <mxCell id="39" value="&lt;font style=&quot;font-size: 14px;&quot;&gt;Mata Pelajaran&lt;/font&gt;" style="shape=partialRectangle;html=1;whiteSpace=wrap;connectable=0;overflow=hidden;fillColor=#1ba1e2;top=0;left=0;bottom=0;right=0;pointerEvents=1;fontColor=#ffffff;strokeColor=#006EAF;" parent="38" vertex="1">
                    <mxGeometry width="180" height="40" as="geometry">
                        <mxRectangle width="180" height="40" as="alternateBounds"/>
                    </mxGeometry>
                </mxCell>
                <mxCell id="40" value="" style="shape=tableRow;horizontal=0;startSize=0;swimlaneHead=0;swimlaneBody=0;top=0;left=0;bottom=0;right=0;collapsible=0;dropTarget=0;fillColor=none;points=[[0,0.5],[1,0.5]];portConstraint=eastwest;" parent="37" vertex="1">
                    <mxGeometry y="40" width="180" height="40" as="geometry"/>
                </mxCell>
                <mxCell id="41" value="ID_Mapel (Primary Key)" style="shape=partialRectangle;html=1;whiteSpace=wrap;connectable=0;overflow=hidden;fillColor=none;top=0;left=0;bottom=0;right=0;pointerEvents=1;" parent="40" vertex="1">
                    <mxGeometry width="180" height="40" as="geometry">
                        <mxRectangle width="180" height="40" as="alternateBounds"/>
                    </mxGeometry>
                </mxCell>
                <mxCell id="42" value="" style="shape=tableRow;horizontal=0;startSize=0;swimlaneHead=0;swimlaneBody=0;top=0;left=0;bottom=0;right=0;collapsible=0;dropTarget=0;fillColor=none;points=[[0,0.5],[1,0.5]];portConstraint=eastwest;" parent="37" vertex="1">
                    <mxGeometry y="80" width="180" height="40" as="geometry"/>
                </mxCell>
                <mxCell id="43" value="nama_mapel" style="shape=partialRectangle;html=1;whiteSpace=wrap;connectable=0;overflow=hidden;fillColor=none;top=0;left=0;bottom=0;right=0;pointerEvents=1;" parent="42" vertex="1">
                    <mxGeometry width="180" height="40" as="geometry">
                        <mxRectangle width="180" height="40" as="alternateBounds"/>
                    </mxGeometry>
                </mxCell>
                <mxCell id="44" value="" style="shape=tableRow;horizontal=0;startSize=0;swimlaneHead=0;swimlaneBody=0;top=0;left=0;bottom=0;right=0;collapsible=0;dropTarget=0;fillColor=none;points=[[0,0.5],[1,0.5]];portConstraint=eastwest;" parent="37" vertex="1">
                    <mxGeometry y="120" width="180" height="40" as="geometry"/>
                </mxCell>
                <mxCell id="45" value="Deskripsi" style="shape=partialRectangle;html=1;whiteSpace=wrap;connectable=0;overflow=hidden;fillColor=none;top=0;left=0;bottom=0;right=0;pointerEvents=1;" parent="44" vertex="1">
                    <mxGeometry width="180" height="40" as="geometry">
                        <mxRectangle width="180" height="40" as="alternateBounds"/>
                    </mxGeometry>
                </mxCell>
                <mxCell id="46" value="" style="shape=tableRow;horizontal=0;startSize=0;swimlaneHead=0;swimlaneBody=0;top=0;left=0;bottom=0;right=0;collapsible=0;dropTarget=0;fillColor=none;points=[[0,0.5],[1,0.5]];portConstraint=eastwest;" parent="37" vertex="1">
                    <mxGeometry y="160" width="180" height="40" as="geometry"/>
                </mxCell>
                <mxCell id="47" value="Bobot&amp;nbsp;" style="shape=partialRectangle;html=1;whiteSpace=wrap;connectable=0;overflow=hidden;fillColor=none;top=0;left=0;bottom=0;right=0;pointerEvents=1;" parent="46" vertex="1">
                    <mxGeometry width="180" height="40" as="geometry">
                        <mxRectangle width="180" height="40" as="alternateBounds"/>
                    </mxGeometry>
                </mxCell>
                <mxCell id="57" value="" style="shape=table;startSize=0;container=1;collapsible=0;childLayout=tableLayout;fontSize=14;" parent="1" vertex="1">
                    <mxGeometry x="-550" y="230" width="200" height="170" as="geometry"/>
                </mxCell>
                <mxCell id="58" value="" style="shape=tableRow;horizontal=0;startSize=0;swimlaneHead=0;swimlaneBody=0;top=0;left=0;bottom=0;right=0;collapsible=0;dropTarget=0;fillColor=none;points=[[0,0.5],[1,0.5]];portConstraint=eastwest;fontSize=14;" parent="57" vertex="1">
                    <mxGeometry width="200" height="40" as="geometry"/>
                </mxCell>
                <mxCell id="59" value="&lt;font style=&quot;font-size: 15px;&quot;&gt;Kriteria&amp;nbsp;&lt;/font&gt;" style="shape=partialRectangle;html=1;whiteSpace=wrap;connectable=0;overflow=hidden;fillColor=#1ba1e2;top=0;left=0;bottom=0;right=0;pointerEvents=1;fontSize=14;fontColor=#ffffff;strokeColor=#006EAF;" parent="58" vertex="1">
                    <mxGeometry width="200" height="40" as="geometry">
                        <mxRectangle width="200" height="40" as="alternateBounds"/>
                    </mxGeometry>
                </mxCell>
                <mxCell id="60" value="" style="shape=tableRow;horizontal=0;startSize=0;swimlaneHead=0;swimlaneBody=0;top=0;left=0;bottom=0;right=0;collapsible=0;dropTarget=0;fillColor=none;points=[[0,0.5],[1,0.5]];portConstraint=eastwest;fontSize=14;" parent="57" vertex="1">
                    <mxGeometry y="40" width="200" height="40" as="geometry"/>
                </mxCell>
                <mxCell id="61" value="&lt;strong&gt;ID_Kriteria&lt;/strong&gt; (Primary Key)" style="shape=partialRectangle;html=1;whiteSpace=wrap;connectable=0;overflow=hidden;fillColor=none;top=0;left=0;bottom=0;right=0;pointerEvents=1;fontSize=14;" parent="60" vertex="1">
                    <mxGeometry width="200" height="40" as="geometry">
                        <mxRectangle width="200" height="40" as="alternateBounds"/>
                    </mxGeometry>
                </mxCell>
                <mxCell id="62" value="" style="shape=tableRow;horizontal=0;startSize=0;swimlaneHead=0;swimlaneBody=0;top=0;left=0;bottom=0;right=0;collapsible=0;dropTarget=0;fillColor=none;points=[[0,0.5],[1,0.5]];portConstraint=eastwest;fontSize=14;" parent="57" vertex="1">
                    <mxGeometry y="80" width="200" height="40" as="geometry"/>
                </mxCell>
                <mxCell id="63" value="&lt;strong&gt;Nama_Kriteria&lt;/strong&gt;" style="shape=partialRectangle;html=1;whiteSpace=wrap;connectable=0;overflow=hidden;fillColor=none;top=0;left=0;bottom=0;right=0;pointerEvents=1;fontSize=14;" parent="62" vertex="1">
                    <mxGeometry width="200" height="40" as="geometry">
                        <mxRectangle width="200" height="40" as="alternateBounds"/>
                    </mxGeometry>
                </mxCell>
                <mxCell id="64" value="" style="shape=tableRow;horizontal=0;startSize=0;swimlaneHead=0;swimlaneBody=0;top=0;left=0;bottom=0;right=0;collapsible=0;dropTarget=0;fillColor=none;points=[[0,0.5],[1,0.5]];portConstraint=eastwest;fontSize=14;" parent="57" vertex="1">
                    <mxGeometry y="120" width="200" height="50" as="geometry"/>
                </mxCell>
                <mxCell id="65" value="&lt;strong&gt;Bobot_Kriteria&lt;/strong&gt; (nilai bobot kriteria)" style="shape=partialRectangle;html=1;whiteSpace=wrap;connectable=0;overflow=hidden;fillColor=none;top=0;left=0;bottom=0;right=0;pointerEvents=1;fontSize=14;" parent="64" vertex="1">
                    <mxGeometry width="200" height="50" as="geometry">
                        <mxRectangle width="200" height="50" as="alternateBounds"/>
                    </mxGeometry>
                </mxCell>
                <mxCell id="VkJ5TcABdocI_Z8cLHhA-98" value="" style="shape=table;startSize=0;container=1;collapsible=0;childLayout=tableLayout;fontSize=13;" parent="1" vertex="1">
                    <mxGeometry x="320" y="70" width="230" height="230" as="geometry"/>
                </mxCell>
                <mxCell id="VkJ5TcABdocI_Z8cLHhA-99" value="" style="shape=tableRow;horizontal=0;startSize=0;swimlaneHead=0;swimlaneBody=0;top=0;left=0;bottom=0;right=0;collapsible=0;dropTarget=0;fillColor=none;points=[[0,0.5],[1,0.5]];portConstraint=eastwest;fontSize=13;" parent="VkJ5TcABdocI_Z8cLHhA-98" vertex="1">
                    <mxGeometry width="230" height="46" as="geometry"/>
                </mxCell>
                <mxCell id="VkJ5TcABdocI_Z8cLHhA-100" value="Rekomendasi" style="shape=partialRectangle;html=1;whiteSpace=wrap;connectable=0;overflow=hidden;fillColor=#1ba1e2;top=0;left=0;bottom=0;right=0;pointerEvents=1;fontSize=13;fontColor=#ffffff;strokeColor=#006EAF;" parent="VkJ5TcABdocI_Z8cLHhA-99" vertex="1">
                    <mxGeometry width="230" height="46" as="geometry">
                        <mxRectangle width="230" height="46" as="alternateBounds"/>
                    </mxGeometry>
                </mxCell>
                <mxCell id="VkJ5TcABdocI_Z8cLHhA-101" value="" style="shape=tableRow;horizontal=0;startSize=0;swimlaneHead=0;swimlaneBody=0;top=0;left=0;bottom=0;right=0;collapsible=0;dropTarget=0;fillColor=none;points=[[0,0.5],[1,0.5]];portConstraint=eastwest;fontSize=13;" parent="VkJ5TcABdocI_Z8cLHhA-98" vertex="1">
                    <mxGeometry y="46" width="230" height="46" as="geometry"/>
                </mxCell>
                <mxCell id="VkJ5TcABdocI_Z8cLHhA-102" value="&lt;strong&gt;ID_Rekomendasi&lt;/strong&gt; (Primary Key)" style="shape=partialRectangle;html=1;whiteSpace=wrap;connectable=0;overflow=hidden;fillColor=none;top=0;left=0;bottom=0;right=0;pointerEvents=1;fontSize=13;" parent="VkJ5TcABdocI_Z8cLHhA-101" vertex="1">
                    <mxGeometry width="230" height="46" as="geometry">
                        <mxRectangle width="230" height="46" as="alternateBounds"/>
                    </mxGeometry>
                </mxCell>
                <mxCell id="VkJ5TcABdocI_Z8cLHhA-103" value="" style="shape=tableRow;horizontal=0;startSize=0;swimlaneHead=0;swimlaneBody=0;top=0;left=0;bottom=0;right=0;collapsible=0;dropTarget=0;fillColor=none;points=[[0,0.5],[1,0.5]];portConstraint=eastwest;fontSize=13;" parent="VkJ5TcABdocI_Z8cLHhA-98" vertex="1">
                    <mxGeometry y="92" width="230" height="46" as="geometry"/>
                </mxCell>
                <mxCell id="VkJ5TcABdocI_Z8cLHhA-104" value="&lt;b&gt;ID_Siswa&amp;nbsp;&lt;/b&gt;(Foreign Key)" style="shape=partialRectangle;html=1;whiteSpace=wrap;connectable=0;overflow=hidden;fillColor=none;top=0;left=0;bottom=0;right=0;pointerEvents=1;fontSize=13;" parent="VkJ5TcABdocI_Z8cLHhA-103" vertex="1">
                    <mxGeometry width="230" height="46" as="geometry">
                        <mxRectangle width="230" height="46" as="alternateBounds"/>
                    </mxGeometry>
                </mxCell>
                <mxCell id="VkJ5TcABdocI_Z8cLHhA-105" value="" style="shape=tableRow;horizontal=0;startSize=0;swimlaneHead=0;swimlaneBody=0;top=0;left=0;bottom=0;right=0;collapsible=0;dropTarget=0;fillColor=none;points=[[0,0.5],[1,0.5]];portConstraint=eastwest;fontSize=13;" parent="VkJ5TcABdocI_Z8cLHhA-98" vertex="1">
                    <mxGeometry y="138" width="230" height="46" as="geometry"/>
                </mxCell>
                <mxCell id="VkJ5TcABdocI_Z8cLHhA-106" value="&lt;strong&gt;ID_Mapel&lt;/strong&gt; (Foreign Key)" style="shape=partialRectangle;html=1;whiteSpace=wrap;connectable=0;overflow=hidden;fillColor=none;top=0;left=0;bottom=0;right=0;pointerEvents=1;fontSize=13;" parent="VkJ5TcABdocI_Z8cLHhA-105" vertex="1">
                    <mxGeometry width="230" height="46" as="geometry">
                        <mxRectangle width="230" height="46" as="alternateBounds"/>
                    </mxGeometry>
                </mxCell>
                <mxCell id="VkJ5TcABdocI_Z8cLHhA-107" value="" style="shape=tableRow;horizontal=0;startSize=0;swimlaneHead=0;swimlaneBody=0;top=0;left=0;bottom=0;right=0;collapsible=0;dropTarget=0;fillColor=none;points=[[0,0.5],[1,0.5]];portConstraint=eastwest;fontSize=13;" parent="VkJ5TcABdocI_Z8cLHhA-98" vertex="1">
                    <mxGeometry y="184" width="230" height="46" as="geometry"/>
                </mxCell>
                <mxCell id="VkJ5TcABdocI_Z8cLHhA-108" value="Tanggal_Rekomendasi" style="shape=partialRectangle;html=1;whiteSpace=wrap;connectable=0;overflow=hidden;fillColor=none;top=0;left=0;bottom=0;right=0;pointerEvents=1;fontSize=13;" parent="VkJ5TcABdocI_Z8cLHhA-107" vertex="1">
                    <mxGeometry width="230" height="46" as="geometry">
                        <mxRectangle width="230" height="46" as="alternateBounds"/>
                    </mxGeometry>
                </mxCell>
                <mxCell id="113" value="" style="edgeStyle=none;html=1;movable=0;resizable=0;rotatable=0;deletable=0;editable=0;connectable=0;" parent="1" edge="1">
                    <mxGeometry relative="1" as="geometry">
                        <mxPoint x="-99.39393939393972" y="110" as="sourcePoint"/>
                        <mxPoint x="-94.54545454545473" y="120" as="targetPoint"/>
                    </mxGeometry>
                </mxCell>
                <mxCell id="116" value="" style="shape=table;startSize=0;container=1;collapsible=0;childLayout=tableLayout;" parent="1" vertex="1">
                    <mxGeometry x="-225" y="50" width="260" height="253" as="geometry"/>
                </mxCell>
                <mxCell id="117" value="" style="shape=tableRow;horizontal=0;startSize=0;swimlaneHead=0;swimlaneBody=0;top=0;left=0;bottom=0;right=0;collapsible=0;dropTarget=0;fillColor=none;points=[[0,0.5],[1,0.5]];portConstraint=eastwest;" parent="116" vertex="1">
                    <mxGeometry width="260" height="40" as="geometry"/>
                </mxCell>
                <mxCell id="118" value="NILAI SISWA" style="shape=partialRectangle;html=1;whiteSpace=wrap;connectable=0;overflow=hidden;fillColor=#1ba1e2;top=0;left=0;bottom=0;right=0;pointerEvents=1;fontColor=#ffffff;strokeColor=#006EAF;" parent="117" vertex="1">
                    <mxGeometry width="260" height="40" as="geometry">
                        <mxRectangle width="260" height="40" as="alternateBounds"/>
                    </mxGeometry>
                </mxCell>
                <mxCell id="119" value="" style="shape=tableRow;horizontal=0;startSize=0;swimlaneHead=0;swimlaneBody=0;top=0;left=0;bottom=0;right=0;collapsible=0;dropTarget=0;fillColor=none;points=[[0,0.5],[1,0.5]];portConstraint=eastwest;" parent="116" vertex="1">
                    <mxGeometry y="40" width="260" height="40" as="geometry"/>
                </mxCell>
                <mxCell id="120" value="ID_Nilai&lt;br&gt;&lt;table&gt;&lt;tbody&gt;&lt;tr&gt;&lt;td&gt;INT (PK)&lt;/td&gt;&lt;/tr&gt;&lt;/tbody&gt;&lt;/table&gt;" style="shape=partialRectangle;html=1;whiteSpace=wrap;connectable=0;overflow=hidden;fillColor=none;top=0;left=0;bottom=0;right=0;pointerEvents=1;" parent="119" vertex="1">
                    <mxGeometry width="260" height="40" as="geometry">
                        <mxRectangle width="260" height="40" as="alternateBounds"/>
                    </mxGeometry>
                </mxCell>
                <mxCell id="121" value="" style="shape=tableRow;horizontal=0;startSize=0;swimlaneHead=0;swimlaneBody=0;top=0;left=0;bottom=0;right=0;collapsible=0;dropTarget=0;fillColor=none;points=[[0,0.5],[1,0.5]];portConstraint=eastwest;" parent="116" vertex="1">
                    <mxGeometry y="80" width="260" height="43" as="geometry"/>
                </mxCell>
                <mxCell id="122" value="ID_Siswa INT (FK)" style="shape=partialRectangle;html=1;whiteSpace=wrap;connectable=0;overflow=hidden;fillColor=none;top=0;left=0;bottom=0;right=0;pointerEvents=1;" parent="121" vertex="1">
                    <mxGeometry width="260" height="43" as="geometry">
                        <mxRectangle width="260" height="43" as="alternateBounds"/>
                    </mxGeometry>
                </mxCell>
                <mxCell id="123" value="" style="shape=tableRow;horizontal=0;startSize=0;swimlaneHead=0;swimlaneBody=0;top=0;left=0;bottom=0;right=0;collapsible=0;dropTarget=0;fillColor=none;points=[[0,0.5],[1,0.5]];portConstraint=eastwest;" parent="116" vertex="1">
                    <mxGeometry y="123" width="260" height="43" as="geometry"/>
                </mxCell>
                <mxCell id="124" value="ID_Mapel&lt;br&gt;&lt;table&gt;&lt;tbody&gt;&lt;tr&gt;&lt;td&gt;INT (FK)&lt;/td&gt;&lt;/tr&gt;&lt;/tbody&gt;&lt;/table&gt;" style="shape=partialRectangle;html=1;whiteSpace=wrap;connectable=0;overflow=hidden;fillColor=none;top=0;left=0;bottom=0;right=0;pointerEvents=1;" parent="123" vertex="1">
                    <mxGeometry width="260" height="43" as="geometry">
                        <mxRectangle width="260" height="43" as="alternateBounds"/>
                    </mxGeometry>
                </mxCell>
                <mxCell id="125" value="" style="shape=tableRow;horizontal=0;startSize=0;swimlaneHead=0;swimlaneBody=0;top=0;left=0;bottom=0;right=0;collapsible=0;dropTarget=0;fillColor=none;points=[[0,0.5],[1,0.5]];portConstraint=eastwest;" parent="116" vertex="1">
                    <mxGeometry y="166" width="260" height="44" as="geometry"/>
                </mxCell>
                <mxCell id="126" value="&lt;font style=&quot;font-size: 11px;&quot;&gt;Nilai_Mapel&lt;/font&gt;&lt;br&gt;&lt;table style=&quot;font-size: 11px;&quot;&gt;&lt;tbody&gt;&lt;tr&gt;&lt;td&gt;&lt;font style=&quot;font-size: 11px;&quot;&gt;FLOAT&lt;/font&gt;&lt;/td&gt;&lt;/tr&gt;&lt;/tbody&gt;&lt;/table&gt;" style="shape=partialRectangle;html=1;whiteSpace=wrap;connectable=0;overflow=hidden;fillColor=none;top=0;left=0;bottom=0;right=0;pointerEvents=1;" parent="125" vertex="1">
                    <mxGeometry width="260" height="44" as="geometry">
                        <mxRectangle width="260" height="44" as="alternateBounds"/>
                    </mxGeometry>
                </mxCell>
                <mxCell id="127" value="" style="shape=tableRow;horizontal=0;startSize=0;swimlaneHead=0;swimlaneBody=0;top=0;left=0;bottom=0;right=0;collapsible=0;dropTarget=0;fillColor=none;points=[[0,0.5],[1,0.5]];portConstraint=eastwest;" parent="116" vertex="1">
                    <mxGeometry y="210" width="260" height="43" as="geometry"/>
                </mxCell>
                <mxCell id="128" value="Nilai_IQ INT" style="shape=partialRectangle;html=1;whiteSpace=wrap;connectable=0;overflow=hidden;fillColor=none;top=0;left=0;bottom=0;right=0;pointerEvents=1;" parent="127" vertex="1">
                    <mxGeometry width="260" height="43" as="geometry">
                        <mxRectangle width="260" height="43" as="alternateBounds"/>
                    </mxGeometry>
                </mxCell>
                <mxCell id="132" style="edgeStyle=none;html=1;fontSize=11;entryX=0;entryY=0.5;entryDx=0;entryDy=0;" parent="1" target="123" edge="1">
                    <mxGeometry relative="1" as="geometry">
                        <mxPoint x="-450" y="554.5" as="targetPoint"/>
                        <mxPoint x="-350" y="100" as="sourcePoint"/>
                        <Array as="points">
                            <mxPoint x="-310" y="100"/>
                            <mxPoint x="-310" y="195"/>
                        </Array>
                    </mxGeometry>
                </mxCell>
                <mxCell id="135" value="&lt;font style=&quot;font-size: 20px;&quot;&gt;1 : m&lt;/font&gt;" style="edgeLabel;html=1;align=center;verticalAlign=middle;resizable=0;points=[];fontSize=11;" parent="132" vertex="1" connectable="0">
                    <mxGeometry x="0.1548" y="4" relative="1" as="geometry">
                        <mxPoint x="7" y="-118" as="offset"/>
                    </mxGeometry>
                </mxCell>
                <mxCell id="139" value="&lt;span style=&quot;font-size: 20px;&quot;&gt;1 : m&lt;/span&gt;" style="edgeLabel;html=1;align=center;verticalAlign=middle;resizable=0;points=[];fontSize=11;" parent="1" vertex="1" connectable="0">
                    <mxGeometry x="39.9970365249045" y="-19.997329493894767" as="geometry">
                        <mxPoint x="62" y="-43" as="offset"/>
                    </mxGeometry>
                </mxCell>
                <mxCell id="142" value="&lt;font style=&quot;font-size: 20px;&quot;&gt;1 = &amp;gt; m&lt;/font&gt;" style="edgeLabel;html=1;align=center;verticalAlign=middle;resizable=0;points=[];fontSize=11;" parent="1" vertex="1" connectable="0">
                    <mxGeometry x="239.9970365249045" y="110.00267050610523" as="geometry">
                        <mxPoint x="219" y="-14" as="offset"/>
                    </mxGeometry>
                </mxCell>
                <mxCell id="146" value="&lt;font style=&quot;font-size: 20px;&quot;&gt;1 : m&lt;/font&gt;" style="edgeLabel;html=1;align=center;verticalAlign=middle;resizable=0;points=[];fontSize=11;" parent="1" vertex="1" connectable="0">
                    <mxGeometry x="-40.0029634750955" y="410.00267050610523" as="geometry">
                        <mxPoint x="-5" y="-18" as="offset"/>
                    </mxGeometry>
                </mxCell>
                <mxCell id="147" value="&lt;font style=&quot;font-size: 16px;&quot;&gt;aplikasi sistem&lt;/font&gt;" style="ellipse;whiteSpace=wrap;html=1;aspect=fixed;fontSize=20;" parent="1" vertex="1">
                    <mxGeometry x="-65" y="1310" width="130" height="130" as="geometry"/>
                </mxCell>
                <mxCell id="151" style="edgeStyle=orthogonalEdgeStyle;curved=1;html=1;fontSize=16;" parent="1" source="148" target="147" edge="1">
                    <mxGeometry relative="1" as="geometry"/>
                </mxCell>
                <mxCell id="148" value="Guru" style="rounded=1;whiteSpace=wrap;html=1;fontSize=16;" parent="1" vertex="1">
                    <mxGeometry x="-390" y="1345" width="120" height="60" as="geometry"/>
                </mxCell>
                <mxCell id="154" style="edgeStyle=orthogonalEdgeStyle;curved=1;html=1;fontSize=16;" parent="1" source="150" target="147" edge="1">
                    <mxGeometry relative="1" as="geometry"/>
                </mxCell>
                <mxCell id="150" value="siswa" style="rounded=1;whiteSpace=wrap;html=1;fontSize=16;" parent="1" vertex="1">
                    <mxGeometry x="230" y="1345" width="120" height="60" as="geometry"/>
                </mxCell>
                <mxCell id="152" value="cek data siswa" style="text;strokeColor=none;align=center;fillColor=none;html=1;verticalAlign=middle;whiteSpace=wrap;rounded=0;fontSize=16;" parent="1" vertex="1">
                    <mxGeometry x="-240" y="1235" width="100" height="50" as="geometry"/>
                </mxCell>
                <mxCell id="155" value="filter data" style="text;strokeColor=none;align=center;fillColor=none;html=1;verticalAlign=middle;whiteSpace=wrap;rounded=0;fontSize=16;" parent="1" vertex="1">
                    <mxGeometry x="120" y="1235" width="90" height="40" as="geometry"/>
                </mxCell>
                <mxCell id="158" value="gambar level o" style="rounded=1;whiteSpace=wrap;html=1;fontSize=16;" parent="1" vertex="1">
                    <mxGeometry x="-108.75" y="1250" width="212.5" height="50" as="geometry"/>
                </mxCell>
                <mxCell id="159" value="sistem rekomendasi&amp;nbsp; pemilihan mata pelajaran Berbasis Weight Product" style="rounded=0;whiteSpace=wrap;html=1;fontSize=16;" parent="1" vertex="1">
                    <mxGeometry x="-220" y="1120" width="440" height="60" as="geometry"/>
                </mxCell>
                <mxCell id="169" style="edgeStyle=none;html=1;fontSize=16;" parent="1" source="161" target="162" edge="1">
                    <mxGeometry relative="1" as="geometry"/>
                </mxCell>
                <mxCell id="195" style="edgeStyle=orthogonalEdgeStyle;html=1;fontSize=14;" parent="1" source="161" target="171" edge="1">
                    <mxGeometry relative="1" as="geometry">
                        <Array as="points">
                            <mxPoint x="-350" y="1910"/>
                        </Array>
                    </mxGeometry>
                </mxCell>
                <mxCell id="161" value="Guru" style="rounded=1;whiteSpace=wrap;html=1;fontSize=16;" parent="1" vertex="1">
                    <mxGeometry x="-410" y="1680" width="120" height="60" as="geometry"/>
                </mxCell>
                <mxCell id="170" style="edgeStyle=none;html=1;fontSize=15;" parent="1" source="162" target="168" edge="1">
                    <mxGeometry relative="1" as="geometry"/>
                </mxCell>
                <mxCell id="436" style="edgeStyle=none;html=1;entryX=0.5;entryY=0;entryDx=0;entryDy=0;fontSize=16;" parent="1" source="162" target="171" edge="1">
                    <mxGeometry relative="1" as="geometry"/>
                </mxCell>
                <mxCell id="162" value="&lt;font style=&quot;font-size: 14px;&quot;&gt;proses data siswa&lt;/font&gt;" style="ellipse;whiteSpace=wrap;html=1;aspect=fixed;fontSize=16;" parent="1" vertex="1">
                    <mxGeometry x="-65" y="1650" width="130" height="130" as="geometry"/>
                </mxCell>
                <mxCell id="643" style="edgeStyle=none;html=1;entryX=0.652;entryY=0.034;entryDx=0;entryDy=0;entryPerimeter=0;exitX=0.577;exitY=1.038;exitDx=0;exitDy=0;exitPerimeter=0;" parent="1" source="168" target="171" edge="1">
                    <mxGeometry relative="1" as="geometry">
                        <Array as="points">
                            <mxPoint x="280" y="1840"/>
                        </Array>
                    </mxGeometry>
                </mxCell>
                <mxCell id="168" value="TB siswa" style="rounded=1;whiteSpace=wrap;html=1;fontSize=16;" parent="1" vertex="1">
                    <mxGeometry x="210" y="1680" width="120" height="60" as="geometry"/>
                </mxCell>
                <mxCell id="438" style="edgeStyle=none;html=1;fontSize=16;" parent="1" source="171" target="197" edge="1">
                    <mxGeometry relative="1" as="geometry"/>
                </mxCell>
                <mxCell id="646" style="edgeStyle=none;html=1;entryX=0;entryY=0.5;entryDx=0;entryDy=0;" parent="1" source="171" target="180" edge="1">
                    <mxGeometry relative="1" as="geometry"/>
                </mxCell>
                <mxCell id="171" value="proses data nilai" style="ellipse;whiteSpace=wrap;html=1;aspect=fixed;fontSize=15;" parent="1" vertex="1">
                    <mxGeometry x="-65" y="1840" width="130" height="130" as="geometry"/>
                </mxCell>
                <mxCell id="645" style="edgeStyle=none;html=1;entryX=0.911;entryY=0.197;entryDx=0;entryDy=0;entryPerimeter=0;exitX=1;exitY=0.5;exitDx=0;exitDy=0;" parent="1" source="174" target="171" edge="1">
                    <mxGeometry relative="1" as="geometry">
                        <mxPoint x="480" y="1540" as="sourcePoint"/>
                        <Array as="points">
                            <mxPoint x="360" y="1535"/>
                            <mxPoint x="360" y="1860"/>
                        </Array>
                    </mxGeometry>
                </mxCell>
                <mxCell id="174" value="TB mata_pelajaran" style="rounded=1;whiteSpace=wrap;html=1;fontSize=16;" parent="1" vertex="1">
                    <mxGeometry x="201" y="1505" width="120" height="60" as="geometry"/>
                </mxCell>
                <mxCell id="177" style="edgeStyle=none;html=1;fontSize=15;" parent="1" source="175" target="176" edge="1">
                    <mxGeometry relative="1" as="geometry"/>
                </mxCell>
                <mxCell id="175" value="Guru" style="rounded=1;whiteSpace=wrap;html=1;fontSize=15;" parent="1" vertex="1">
                    <mxGeometry x="-410" y="1505" width="120" height="60" as="geometry"/>
                </mxCell>
                <mxCell id="179" style="edgeStyle=none;html=1;fontSize=15;" parent="1" source="176" target="174" edge="1">
                    <mxGeometry relative="1" as="geometry"/>
                </mxCell>
                <mxCell id="437" style="edgeStyle=none;html=1;entryX=0.5;entryY=0;entryDx=0;entryDy=0;fontSize=16;" parent="1" source="176" target="162" edge="1">
                    <mxGeometry relative="1" as="geometry"/>
                </mxCell>
                <mxCell id="176" value="Proses data mata pelajaran" style="ellipse;whiteSpace=wrap;html=1;aspect=fixed;fontSize=15;" parent="1" vertex="1">
                    <mxGeometry x="-65" y="1470" width="130" height="130" as="geometry"/>
                </mxCell>
                <mxCell id="198" style="edgeStyle=orthogonalEdgeStyle;html=1;fontSize=14;" parent="1" source="180" target="197" edge="1">
                    <mxGeometry relative="1" as="geometry">
                        <Array as="points">
                            <mxPoint x="350" y="2100"/>
                        </Array>
                    </mxGeometry>
                </mxCell>
                <mxCell id="180" value="tb&lt;br&gt;niliai_siswa" style="rounded=1;whiteSpace=wrap;html=1;fontSize=16;" parent="1" vertex="1">
                    <mxGeometry x="300" y="1875" width="120" height="60" as="geometry"/>
                </mxCell>
                <mxCell id="183" value="input data siswa" style="text;strokeColor=none;align=center;fillColor=none;html=1;verticalAlign=middle;whiteSpace=wrap;rounded=0;fontSize=14;" parent="1" vertex="1">
                    <mxGeometry x="-240" y="1650" width="110" height="50" as="geometry"/>
                </mxCell>
                <mxCell id="184" value="menyimpan data" style="text;strokeColor=none;align=center;fillColor=none;html=1;verticalAlign=middle;whiteSpace=wrap;rounded=0;fontSize=14;" parent="1" vertex="1">
                    <mxGeometry x="130" y="1480" width="110" height="50" as="geometry"/>
                </mxCell>
                <mxCell id="211" style="edgeStyle=orthogonalEdgeStyle;html=1;fontSize=14;" parent="1" source="197" target="210" edge="1">
                    <mxGeometry relative="1" as="geometry">
                        <Array as="points">
                            <mxPoint x="-180" y="2100"/>
                            <mxPoint x="-180" y="2100"/>
                        </Array>
                    </mxGeometry>
                </mxCell>
                <mxCell id="197" value="hasil&lt;br&gt;kelompok nilai" style="ellipse;whiteSpace=wrap;html=1;aspect=fixed;fontSize=15;" parent="1" vertex="1">
                    <mxGeometry x="-65" y="2030" width="130" height="130" as="geometry"/>
                </mxCell>
                <mxCell id="199" value="input nilai siswa" style="text;strokeColor=none;align=center;fillColor=none;html=1;verticalAlign=middle;whiteSpace=wrap;rounded=0;fontSize=14;" parent="1" vertex="1">
                    <mxGeometry x="-270" y="1910" width="110" height="50" as="geometry"/>
                </mxCell>
                <mxCell id="205" value="menyimpan data" style="text;strokeColor=none;align=center;fillColor=none;html=1;verticalAlign=middle;whiteSpace=wrap;rounded=0;fontSize=14;" parent="1" vertex="1">
                    <mxGeometry x="120" y="1660" width="110" height="50" as="geometry"/>
                </mxCell>
                <mxCell id="206" value="menyimpan data" style="text;strokeColor=none;align=center;fillColor=none;html=1;verticalAlign=middle;whiteSpace=wrap;rounded=0;fontSize=14;" parent="1" vertex="1">
                    <mxGeometry x="130" y="1910" width="110" height="50" as="geometry"/>
                </mxCell>
                <mxCell id="207" value="memproses hasil" style="text;strokeColor=none;align=center;fillColor=none;html=1;verticalAlign=middle;whiteSpace=wrap;rounded=0;fontSize=14;" parent="1" vertex="1">
                    <mxGeometry x="-190" y="2060" width="60" height="30" as="geometry"/>
                </mxCell>
                <mxCell id="210" value="TB rekomendasi" style="rounded=0;whiteSpace=wrap;html=1;fontSize=14;" parent="1" vertex="1">
                    <mxGeometry x="-380" y="2065" width="120" height="60" as="geometry"/>
                </mxCell>
                <mxCell id="213" value="pembobotan nilai" style="text;strokeColor=none;align=center;fillColor=none;html=1;verticalAlign=middle;whiteSpace=wrap;rounded=0;fontSize=14;" parent="1" vertex="1">
                    <mxGeometry x="180" y="2060" width="60" height="30" as="geometry"/>
                </mxCell>
                <mxCell id="215" value="DATA&amp;nbsp; &amp;nbsp; &amp;nbsp; &amp;nbsp; &amp;nbsp; &amp;nbsp; &amp;nbsp; &amp;nbsp;FLOW&amp;nbsp; &amp;nbsp; &amp;nbsp; &amp;nbsp; &amp;nbsp; DIAGRAM" style="rounded=0;whiteSpace=wrap;html=1;fontSize=14;" parent="1" vertex="1">
                    <mxGeometry x="-220" y="1040" width="440" height="60" as="geometry"/>
                </mxCell>
                <mxCell id="217" value="input mata pelajaran" style="text;strokeColor=none;align=center;fillColor=none;html=1;verticalAlign=middle;whiteSpace=wrap;rounded=0;fontSize=14;" parent="1" vertex="1">
                    <mxGeometry x="-240" y="1480" width="110" height="50" as="geometry"/>
                </mxCell>
                <mxCell id="417" style="edgeStyle=none;html=1;entryX=0.455;entryY=0;entryDx=0;entryDy=0;entryPerimeter=0;fontSize=16;" parent="1" source="369" target="372" edge="1">
                    <mxGeometry relative="1" as="geometry"/>
                </mxCell>
                <mxCell id="369" value="MULAI" style="rounded=1;whiteSpace=wrap;html=1;fontSize=14;arcSize=50;" parent="1" vertex="1">
                    <mxGeometry x="-60" y="2640" width="120" height="60" as="geometry"/>
                </mxCell>
                <mxCell id="371" value="FLOW CHART&amp;nbsp;" style="rounded=0;whiteSpace=wrap;html=1;fontSize=14;" parent="1" vertex="1">
                    <mxGeometry x="-285" y="2510" width="570" height="60" as="geometry"/>
                </mxCell>
                <mxCell id="418" style="edgeStyle=none;html=1;entryX=0.5;entryY=0;entryDx=0;entryDy=0;fontSize=16;exitX=0.456;exitY=1.024;exitDx=0;exitDy=0;exitPerimeter=0;" parent="1" source="372" target="374" edge="1">
                    <mxGeometry relative="1" as="geometry"/>
                </mxCell>
                <mxCell id="372" value="register / login&lt;br&gt;" style="whiteSpace=wrap;html=1;aspect=fixed;rounded=1;fontSize=14;" parent="1" vertex="1">
                    <mxGeometry x="-50" y="2750" width="110" height="110" as="geometry"/>
                </mxCell>
                <mxCell id="419" style="edgeStyle=none;html=1;fontSize=16;" parent="1" source="374" target="375" edge="1">
                    <mxGeometry relative="1" as="geometry"/>
                </mxCell>
                <mxCell id="374" value="pendaftaran&lt;br&gt;&amp;nbsp;siswa" style="shape=parallelogram;perimeter=parallelogramPerimeter;whiteSpace=wrap;html=1;fixedSize=1;rounded=1;fontSize=14;" parent="1" vertex="1">
                    <mxGeometry x="-75" y="2910" width="150" height="60" as="geometry"/>
                </mxCell>
                <mxCell id="420" style="edgeStyle=none;html=1;entryX=0.5;entryY=0;entryDx=0;entryDy=0;fontSize=16;" parent="1" source="375" target="376" edge="1">
                    <mxGeometry relative="1" as="geometry"/>
                </mxCell>
                <mxCell id="375" value="pendaftaran&amp;nbsp;&lt;br&gt;nilai akademik" style="shape=parallelogram;perimeter=parallelogramPerimeter;whiteSpace=wrap;html=1;fixedSize=1;rounded=1;fontSize=14;" parent="1" vertex="1">
                    <mxGeometry x="-85" y="3010" width="170" height="60" as="geometry"/>
                </mxCell>
                <mxCell id="421" style="edgeStyle=none;html=1;fontSize=16;" parent="1" source="376" target="378" edge="1">
                    <mxGeometry relative="1" as="geometry"/>
                </mxCell>
                <mxCell id="376" value="Test iq" style="shape=parallelogram;perimeter=parallelogramPerimeter;whiteSpace=wrap;html=1;fixedSize=1;rounded=1;fontSize=14;" parent="1" vertex="1">
                    <mxGeometry x="-85" y="3100" width="170" height="60" as="geometry"/>
                </mxCell>
                <mxCell id="422" style="edgeStyle=none;html=1;fontSize=16;" parent="1" source="378" target="394" edge="1">
                    <mxGeometry relative="1" as="geometry"/>
                </mxCell>
                <mxCell id="378" value="PROSES PEMBOBOTAN" style="whiteSpace=wrap;html=1;aspect=fixed;rounded=1;fontSize=14;" parent="1" vertex="1">
                    <mxGeometry x="-50" y="3190" width="105" height="105" as="geometry"/>
                </mxCell>
                <mxCell id="432" style="edgeStyle=none;html=1;entryX=0.533;entryY=0.167;entryDx=0;entryDy=0;entryPerimeter=0;fontSize=16;" parent="1" target="389" edge="1">
                    <mxGeometry relative="1" as="geometry">
                        <mxPoint x="1.2428395273698243" y="3548.565954391497" as="sourcePoint"/>
                    </mxGeometry>
                </mxCell>
                <mxCell id="387" value="SELESAI" style="rounded=1;whiteSpace=wrap;html=1;fontSize=14;arcSize=50;" parent="1" vertex="1">
                    <mxGeometry x="-60" y="3800" width="120" height="60" as="geometry"/>
                </mxCell>
                <mxCell id="433" style="edgeStyle=none;html=1;fontSize=16;startArrow=none;" parent="1" source="638" target="387" edge="1">
                    <mxGeometry relative="1" as="geometry"/>
                </mxCell>
                <mxCell id="389" value="KELOMPOK 3" style="shape=parallelogram;perimeter=parallelogramPerimeter;whiteSpace=wrap;html=1;fixedSize=1;rounded=1;fontSize=14;fontStyle=1" parent="1" vertex="1">
                    <mxGeometry x="-77.5" y="3610" width="150" height="60" as="geometry"/>
                </mxCell>
                <mxCell id="392" value="ENTITY RELATIONSHIP DIAGRAM" style="rounded=0;whiteSpace=wrap;html=1;fontSize=14;" parent="1" vertex="1">
                    <mxGeometry x="-282.5" y="-440" width="570" height="60" as="geometry"/>
                </mxCell>
                <mxCell id="640" style="edgeStyle=none;html=1;entryX=0.5;entryY=0;entryDx=0;entryDy=0;" parent="1" source="394" target="637" edge="1">
                    <mxGeometry relative="1" as="geometry"/>
                </mxCell>
                <mxCell id="394" value="RUMUS WEIGHT PORODUCT" style="rounded=1;whiteSpace=wrap;html=1;fontSize=14;" parent="1" vertex="1">
                    <mxGeometry x="-57.5" y="3320" width="120" height="60" as="geometry"/>
                </mxCell>
                <mxCell id="400" value="" style="shape=table;startSize=0;container=1;collapsible=0;childLayout=tableLayout;" parent="1" vertex="1">
                    <mxGeometry x="-215" y="-280" width="250" height="260" as="geometry"/>
                </mxCell>
                <mxCell id="401" value="" style="shape=tableRow;horizontal=0;startSize=0;swimlaneHead=0;swimlaneBody=0;top=0;left=0;bottom=0;right=0;collapsible=0;dropTarget=0;fillColor=none;points=[[0,0.5],[1,0.5]];portConstraint=eastwest;" parent="400" vertex="1">
                    <mxGeometry width="250" height="52" as="geometry"/>
                </mxCell>
                <mxCell id="402" value="&lt;font style=&quot;font-size: 16px;&quot;&gt;siswa&lt;/font&gt;" style="shape=partialRectangle;html=1;whiteSpace=wrap;connectable=0;overflow=hidden;fillColor=#1ba1e2;top=0;left=0;bottom=0;right=0;pointerEvents=1;fontColor=#ffffff;strokeColor=#006EAF;" parent="401" vertex="1">
                    <mxGeometry width="250" height="52" as="geometry">
                        <mxRectangle width="250" height="52" as="alternateBounds"/>
                    </mxGeometry>
                </mxCell>
                <mxCell id="403" value="" style="shape=tableRow;horizontal=0;startSize=0;swimlaneHead=0;swimlaneBody=0;top=0;left=0;bottom=0;right=0;collapsible=0;dropTarget=0;fillColor=none;points=[[0,0.5],[1,0.5]];portConstraint=eastwest;" parent="400" vertex="1">
                    <mxGeometry y="52" width="250" height="52" as="geometry"/>
                </mxCell>
                <mxCell id="404" value="ID_Sswa" style="shape=partialRectangle;html=1;whiteSpace=wrap;connectable=0;overflow=hidden;fillColor=none;top=0;left=0;bottom=0;right=0;pointerEvents=1;" parent="403" vertex="1">
                    <mxGeometry width="250" height="52" as="geometry">
                        <mxRectangle width="250" height="52" as="alternateBounds"/>
                    </mxGeometry>
                </mxCell>
                <mxCell id="405" value="" style="shape=tableRow;horizontal=0;startSize=0;swimlaneHead=0;swimlaneBody=0;top=0;left=0;bottom=0;right=0;collapsible=0;dropTarget=0;fillColor=none;points=[[0,0.5],[1,0.5]];portConstraint=eastwest;" parent="400" vertex="1">
                    <mxGeometry y="104" width="250" height="52" as="geometry"/>
                </mxCell>
                <mxCell id="406" value="Nama" style="shape=partialRectangle;html=1;whiteSpace=wrap;connectable=0;overflow=hidden;fillColor=none;top=0;left=0;bottom=0;right=0;pointerEvents=1;" parent="405" vertex="1">
                    <mxGeometry width="250" height="52" as="geometry">
                        <mxRectangle width="250" height="52" as="alternateBounds"/>
                    </mxGeometry>
                </mxCell>
                <mxCell id="407" value="" style="shape=tableRow;horizontal=0;startSize=0;swimlaneHead=0;swimlaneBody=0;top=0;left=0;bottom=0;right=0;collapsible=0;dropTarget=0;fillColor=none;points=[[0,0.5],[1,0.5]];portConstraint=eastwest;" parent="400" vertex="1">
                    <mxGeometry y="156" width="250" height="52" as="geometry"/>
                </mxCell>
                <mxCell id="408" value="NIDN" style="shape=partialRectangle;html=1;whiteSpace=wrap;connectable=0;overflow=hidden;fillColor=none;top=0;left=0;bottom=0;right=0;pointerEvents=1;" parent="407" vertex="1">
                    <mxGeometry width="250" height="52" as="geometry">
                        <mxRectangle width="250" height="52" as="alternateBounds"/>
                    </mxGeometry>
                </mxCell>
                <mxCell id="409" value="" style="shape=tableRow;horizontal=0;startSize=0;swimlaneHead=0;swimlaneBody=0;top=0;left=0;bottom=0;right=0;collapsible=0;dropTarget=0;fillColor=none;points=[[0,0.5],[1,0.5]];portConstraint=eastwest;" parent="400" vertex="1">
                    <mxGeometry y="208" width="250" height="52" as="geometry"/>
                </mxCell>
                <mxCell id="410" value="KELAS" style="shape=partialRectangle;html=1;whiteSpace=wrap;connectable=0;overflow=hidden;fillColor=none;top=0;left=0;bottom=0;right=0;pointerEvents=1;" parent="409" vertex="1">
                    <mxGeometry width="250" height="52" as="geometry">
                        <mxRectangle width="250" height="52" as="alternateBounds"/>
                    </mxGeometry>
                </mxCell>
                <mxCell id="411" style="edgeStyle=none;html=1;entryX=0;entryY=0.5;entryDx=0;entryDy=0;fontSize=16;" parent="1" target="VkJ5TcABdocI_Z8cLHhA-98" edge="1">
                    <mxGeometry relative="1" as="geometry">
                        <mxPoint x="30" y="-182" as="sourcePoint"/>
                        <Array as="points">
                            <mxPoint x="200" y="-182"/>
                            <mxPoint x="200" y="185"/>
                        </Array>
                    </mxGeometry>
                </mxCell>
                <mxCell id="412" style="edgeStyle=none;html=1;fontSize=16;entryX=1;entryY=0.5;entryDx=0;entryDy=0;" parent="1" source="403" target="119" edge="1">
                    <mxGeometry relative="1" as="geometry">
                        <Array as="points">
                            <mxPoint x="160" y="-202"/>
                            <mxPoint x="160" y="110"/>
                        </Array>
                    </mxGeometry>
                </mxCell>
                <mxCell id="415" style="edgeStyle=none;html=1;fontSize=16;" parent="1" target="VkJ5TcABdocI_Z8cLHhA-105" edge="1">
                    <mxGeometry relative="1" as="geometry">
                        <mxPoint x="-350" y="124" as="sourcePoint"/>
                        <Array as="points">
                            <mxPoint x="-320" y="124"/>
                            <mxPoint x="-320" y="360"/>
                            <mxPoint x="-150" y="360"/>
                            <mxPoint x="240" y="360"/>
                            <mxPoint x="240" y="231"/>
                        </Array>
                    </mxGeometry>
                </mxCell>
                <mxCell id="425" value="KELOMPOK 2" style="shape=parallelogram;perimeter=parallelogramPerimeter;whiteSpace=wrap;html=1;fixedSize=1;fontSize=16;rounded=1;" parent="1" vertex="1">
                    <mxGeometry x="-75" y="3520" width="160" height="60" as="geometry"/>
                </mxCell>
                <mxCell id="440" value="&lt;font style=&quot;font-size: 20px;&quot;&gt;1 : m&lt;/font&gt;" style="edgeLabel;html=1;align=center;verticalAlign=middle;resizable=0;points=[];fontSize=11;" parent="1" vertex="1" connectable="0">
                    <mxGeometry x="261" y="-50.00157894736833" as="geometry">
                        <mxPoint x="-22" y="-13" as="offset"/>
                    </mxGeometry>
                </mxCell>
                <mxCell id="466" style="edgeStyle=none;html=1;entryX=0;entryY=0;entryDx=0;entryDy=0;" parent="1" target="456" edge="1">
                    <mxGeometry relative="1" as="geometry">
                        <mxPoint x="-360" y="4020" as="sourcePoint"/>
                    </mxGeometry>
                </mxCell>
                <mxCell id="468" style="edgeStyle=none;html=1;" parent="1" target="453" edge="1">
                    <mxGeometry relative="1" as="geometry">
                        <mxPoint x="-360" y="4040" as="sourcePoint"/>
                        <Array as="points">
                            <mxPoint x="-150" y="4040"/>
                            <mxPoint x="-150" y="4140"/>
                        </Array>
                    </mxGeometry>
                </mxCell>
                <mxCell id="471" style="edgeStyle=none;html=1;entryX=0;entryY=0.5;entryDx=0;entryDy=0;" parent="1" target="455" edge="1">
                    <mxGeometry relative="1" as="geometry">
                        <mxPoint x="-360" y="4060" as="sourcePoint"/>
                        <Array as="points">
                            <mxPoint x="-160" y="4060"/>
                            <mxPoint x="-160" y="4215"/>
                        </Array>
                    </mxGeometry>
                </mxCell>
                <mxCell id="473" style="edgeStyle=none;html=1;entryX=0.067;entryY=0.261;entryDx=0;entryDy=0;entryPerimeter=0;" parent="1" target="457" edge="1">
                    <mxGeometry relative="1" as="geometry">
                        <mxPoint x="-360" y="4080" as="sourcePoint"/>
                        <mxPoint x="-60" y="4350" as="targetPoint"/>
                        <Array as="points">
                            <mxPoint x="-180" y="4080"/>
                            <mxPoint x="-180" y="4220"/>
                            <mxPoint x="-180" y="4370"/>
                            <mxPoint x="-100" y="4370"/>
                        </Array>
                    </mxGeometry>
                </mxCell>
                <mxCell id="483" style="edgeStyle=none;html=1;entryX=0;entryY=0.5;entryDx=0;entryDy=0;" parent="1" target="482" edge="1">
                    <mxGeometry relative="1" as="geometry">
                        <mxPoint x="-360" y="4110" as="sourcePoint"/>
                        <Array as="points">
                            <mxPoint x="-200" y="4110"/>
                            <mxPoint x="-200" y="4295"/>
                        </Array>
                    </mxGeometry>
                </mxCell>
                <mxCell id="441" value="Siswa" style="shape=umlActor;verticalLabelPosition=bottom;verticalAlign=top;html=1;" parent="1" vertex="1">
                    <mxGeometry x="-445" y="4010" width="65" height="100" as="geometry"/>
                </mxCell>
                <mxCell id="464" style="edgeStyle=none;html=1;" parent="1" target="456" edge="1">
                    <mxGeometry relative="1" as="geometry">
                        <mxPoint x="-360" y="4310" as="sourcePoint"/>
                        <Array as="points">
                            <mxPoint x="-150" y="4310"/>
                            <mxPoint x="-80" y="4310"/>
                            <mxPoint x="-80" y="4200"/>
                            <mxPoint x="-80" y="4050"/>
                        </Array>
                    </mxGeometry>
                </mxCell>
                <mxCell id="474" style="edgeStyle=none;html=1;" parent="1" target="457" edge="1">
                    <mxGeometry relative="1" as="geometry">
                        <mxPoint x="-360" y="4340" as="sourcePoint"/>
                        <Array as="points">
                            <mxPoint x="-190" y="4340"/>
                            <mxPoint x="-190" y="4390"/>
                        </Array>
                    </mxGeometry>
                </mxCell>
                <mxCell id="477" style="edgeStyle=none;html=1;entryX=0;entryY=0.5;entryDx=0;entryDy=0;" parent="1" target="475" edge="1">
                    <mxGeometry relative="1" as="geometry">
                        <mxPoint x="-360" y="4360" as="sourcePoint"/>
                        <Array as="points">
                            <mxPoint x="-200" y="4360"/>
                            <mxPoint x="-200" y="4400"/>
                            <mxPoint x="-200" y="4475"/>
                        </Array>
                    </mxGeometry>
                </mxCell>
                <mxCell id="480" style="edgeStyle=none;html=1;" parent="1" target="478" edge="1">
                    <mxGeometry relative="1" as="geometry">
                        <mxPoint x="-360" y="4390" as="sourcePoint"/>
                        <Array as="points">
                            <mxPoint x="-220" y="4390"/>
                            <mxPoint x="-220" y="4595"/>
                        </Array>
                    </mxGeometry>
                </mxCell>
                <mxCell id="442" value="Admin" style="shape=umlActor;verticalLabelPosition=bottom;verticalAlign=top;html=1;" parent="1" vertex="1">
                    <mxGeometry x="-445" y="4300" width="65" height="90" as="geometry"/>
                </mxCell>
                <mxCell id="453" value="register data" style="ellipse;whiteSpace=wrap;html=1;" parent="1" vertex="1">
                    <mxGeometry x="-50" y="4100" width="105" height="70" as="geometry"/>
                </mxCell>
                <mxCell id="455" value="input nilai" style="ellipse;whiteSpace=wrap;html=1;" parent="1" vertex="1">
                    <mxGeometry x="-52.5" y="4180" width="105" height="70" as="geometry"/>
                </mxCell>
                <mxCell id="456" value="Login" style="ellipse;whiteSpace=wrap;html=1;" parent="1" vertex="1">
                    <mxGeometry x="-50" y="4010" width="105" height="70" as="geometry"/>
                </mxCell>
                <mxCell id="457" value="Cek Hasil" style="ellipse;whiteSpace=wrap;html=1;" parent="1" vertex="1">
                    <mxGeometry x="-52.5" y="4350" width="105" height="70" as="geometry"/>
                </mxCell>
                <mxCell id="488" style="edgeStyle=none;html=1;entryX=1;entryY=0.5;entryDx=0;entryDy=0;" parent="1" source="458" target="456" edge="1">
                    <mxGeometry relative="1" as="geometry"/>
                </mxCell>
                <mxCell id="489" style="edgeStyle=none;html=1;" parent="1" source="458" edge="1">
                    <mxGeometry relative="1" as="geometry">
                        <mxPoint x="60" y="4135" as="targetPoint"/>
                    </mxGeometry>
                </mxCell>
                <mxCell id="490" style="edgeStyle=none;html=1;entryX=1;entryY=0.5;entryDx=0;entryDy=0;" parent="1" source="458" target="455" edge="1">
                    <mxGeometry relative="1" as="geometry"/>
                </mxCell>
                <mxCell id="491" style="edgeStyle=none;html=1;entryX=1;entryY=0.5;entryDx=0;entryDy=0;" parent="1" source="458" target="482" edge="1">
                    <mxGeometry relative="1" as="geometry"/>
                </mxCell>
                <mxCell id="492" style="edgeStyle=none;html=1;entryX=1;entryY=0.5;entryDx=0;entryDy=0;" parent="1" source="458" target="457" edge="1">
                    <mxGeometry relative="1" as="geometry"/>
                </mxCell>
                <mxCell id="493" style="edgeStyle=none;html=1;entryX=1;entryY=0.5;entryDx=0;entryDy=0;" parent="1" source="458" target="475" edge="1">
                    <mxGeometry relative="1" as="geometry"/>
                </mxCell>
                <mxCell id="494" style="edgeStyle=none;html=1;entryX=1;entryY=0.5;entryDx=0;entryDy=0;" parent="1" source="458" target="478" edge="1">
                    <mxGeometry relative="1" as="geometry"/>
                </mxCell>
                <mxCell id="458" value="sistem" style="shape=umlActor;verticalLabelPosition=bottom;verticalAlign=top;html=1;outlineConnect=0;" parent="1" vertex="1">
                    <mxGeometry x="450" y="4240" width="70" height="110" as="geometry"/>
                </mxCell>
                <mxCell id="475" value="mantenance" style="ellipse;whiteSpace=wrap;html=1;" parent="1" vertex="1">
                    <mxGeometry x="-55" y="4440" width="105" height="70" as="geometry"/>
                </mxCell>
                <mxCell id="478" value="Edit / delete / search" style="ellipse;whiteSpace=wrap;html=1;" parent="1" vertex="1">
                    <mxGeometry x="-52.5" y="4560" width="105" height="70" as="geometry"/>
                </mxCell>
                <mxCell id="482" value="edit&amp;nbsp;" style="ellipse;whiteSpace=wrap;html=1;" parent="1" vertex="1">
                    <mxGeometry x="-52.5" y="4260" width="105" height="70" as="geometry"/>
                </mxCell>
                <mxCell id="544" value="" style="shape=table;startSize=0;container=1;collapsible=0;childLayout=tableLayout;labelBackgroundColor=#000000;strokeColor=#F0F0F0;strokeWidth=2;fontSize=14;" parent="1" vertex="1">
                    <mxGeometry x="730" y="4070" width="1240" height="1920" as="geometry"/>
                </mxCell>
                <mxCell id="545" value="" style="shape=tableRow;horizontal=0;startSize=50;swimlaneHead=0;swimlaneBody=0;top=0;left=0;bottom=0;right=0;collapsible=0;dropTarget=0;fillColor=none;points=[[0,0.5],[1,0.5]];portConstraint=eastwest;labelBackgroundColor=#000000;strokeColor=#F0F0F0;strokeWidth=2;fontSize=14;" parent="544" vertex="1">
                    <mxGeometry width="1240" height="1920" as="geometry"/>
                </mxCell>
                <mxCell id="546" value="" style="shape=partialRectangle;html=1;whiteSpace=wrap;connectable=0;overflow=hidden;fillColor=none;top=0;left=0;bottom=0;right=0;pointerEvents=1;labelBackgroundColor=#000000;strokeColor=#F0F0F0;strokeWidth=2;fontSize=14;" parent="545" vertex="1">
                    <mxGeometry x="50" width="1190" height="1920" as="geometry">
                        <mxRectangle width="1190" height="1920" as="alternateBounds"/>
                    </mxGeometry>
                </mxCell>
                <mxCell id="569" style="edgeStyle=none;html=1;fontSize=20;" parent="1" source="547" target="568" edge="1">
                    <mxGeometry relative="1" as="geometry"/>
                </mxCell>
                <mxCell id="547" value="&lt;span style=&quot;font-size: 20px;&quot;&gt;register&lt;/span&gt;" style="rounded=1;whiteSpace=wrap;html=1;labelBackgroundColor=#000000;strokeColor=#F0F0F0;strokeWidth=2;fontSize=14;" parent="1" vertex="1">
                    <mxGeometry x="850" y="4230" width="190" height="60" as="geometry"/>
                </mxCell>
                <mxCell id="549" style="edgeStyle=none;html=1;fontSize=14;" parent="1" source="548" target="547" edge="1">
                    <mxGeometry relative="1" as="geometry"/>
                </mxCell>
                <mxCell id="548" value="start" style="ellipse;whiteSpace=wrap;html=1;aspect=fixed;labelBackgroundColor=#000000;strokeColor=#F0F0F0;strokeWidth=2;fontSize=14;" parent="1" vertex="1">
                    <mxGeometry x="905" y="4095" width="80" height="80" as="geometry"/>
                </mxCell>
                <mxCell id="560" value="" style="shape=table;startSize=40;container=1;collapsible=0;childLayout=tableLayout;labelBackgroundColor=#000000;strokeColor=#F0F0F0;strokeWidth=2;fontSize=20;fillColor=default;" parent="1" vertex="1">
                    <mxGeometry x="720" y="3950" width="1230" height="100" as="geometry"/>
                </mxCell>
                <mxCell id="561" value="" style="shape=tableRow;horizontal=0;startSize=50;swimlaneHead=0;swimlaneBody=0;top=0;left=0;bottom=0;right=0;collapsible=0;dropTarget=0;fillColor=none;points=[[0,0.5],[1,0.5]];portConstraint=eastwest;labelBackgroundColor=#000000;strokeColor=#F0F0F0;strokeWidth=2;fontSize=20;" parent="560" vertex="1">
                    <mxGeometry y="40" width="1230" height="60" as="geometry"/>
                </mxCell>
                <mxCell id="562" value="siswa" style="shape=partialRectangle;html=1;whiteSpace=wrap;connectable=0;overflow=hidden;fillColor=none;top=0;left=0;bottom=0;right=0;pointerEvents=1;labelBackgroundColor=#000000;strokeColor=#F0F0F0;strokeWidth=2;fontSize=20;" parent="561" vertex="1">
                    <mxGeometry x="50" width="393" height="60" as="geometry">
                        <mxRectangle width="393" height="60" as="alternateBounds"/>
                    </mxGeometry>
                </mxCell>
                <mxCell id="564" value="sistem" style="shape=partialRectangle;html=1;whiteSpace=wrap;connectable=0;overflow=hidden;fillColor=none;top=0;left=0;bottom=0;right=0;pointerEvents=1;labelBackgroundColor=#000000;strokeColor=#F0F0F0;strokeWidth=2;fontSize=20;" parent="561" vertex="1">
                    <mxGeometry x="443" width="394" height="60" as="geometry">
                        <mxRectangle width="394" height="60" as="alternateBounds"/>
                    </mxGeometry>
                </mxCell>
                <mxCell id="565" value="admin" style="shape=partialRectangle;html=1;whiteSpace=wrap;connectable=0;overflow=hidden;fillColor=none;top=0;left=0;bottom=0;right=0;pointerEvents=1;labelBackgroundColor=#000000;strokeColor=#F0F0F0;strokeWidth=2;fontSize=20;" parent="561" vertex="1">
                    <mxGeometry x="837" width="393" height="60" as="geometry">
                        <mxRectangle width="393" height="60" as="alternateBounds"/>
                    </mxGeometry>
                </mxCell>
                <mxCell id="566" value="&lt;span style=&quot;font-size: 20px;&quot;&gt;register data siswa&lt;/span&gt;" style="rounded=1;whiteSpace=wrap;html=1;labelBackgroundColor=#000000;strokeColor=#F0F0F0;strokeWidth=2;fontSize=14;" parent="1" vertex="1">
                    <mxGeometry x="850" y="4350" width="190" height="60" as="geometry"/>
                </mxCell>
                <mxCell id="571" style="edgeStyle=none;html=1;fontSize=20;entryX=0.46;entryY=-0.021;entryDx=0;entryDy=0;entryPerimeter=0;" parent="1" target="566" edge="1">
                    <mxGeometry relative="1" as="geometry">
                        <mxPoint x="1380" y="4300" as="sourcePoint"/>
                        <mxPoint x="1090" y="4370" as="targetPoint"/>
                        <Array as="points">
                            <mxPoint x="1380" y="4300"/>
                            <mxPoint x="1380" y="4320"/>
                            <mxPoint x="1200" y="4320"/>
                            <mxPoint x="940" y="4320"/>
                        </Array>
                    </mxGeometry>
                </mxCell>
                <mxCell id="568" value="&lt;span style=&quot;font-size: 20px;&quot;&gt;view register&lt;/span&gt;" style="rounded=1;whiteSpace=wrap;html=1;labelBackgroundColor=#000000;strokeColor=#F0F0F0;strokeWidth=2;fontSize=14;" parent="1" vertex="1">
                    <mxGeometry x="1280" y="4230" width="190" height="60" as="geometry"/>
                </mxCell>
                <mxCell id="570" value="&lt;span style=&quot;font-size: 20px;&quot;&gt;view login&lt;/span&gt;" style="rounded=1;whiteSpace=wrap;html=1;labelBackgroundColor=#000000;strokeColor=#F0F0F0;strokeWidth=2;fontSize=14;" parent="1" vertex="1">
                    <mxGeometry x="1275" y="4460" width="190" height="60" as="geometry"/>
                </mxCell>
                <mxCell id="576" style="edgeStyle=none;html=1;fontSize=20;" parent="1" source="575" target="570" edge="1">
                    <mxGeometry relative="1" as="geometry"/>
                </mxCell>
                <mxCell id="586" style="edgeStyle=none;html=1;fontSize=20;" parent="1" edge="1">
                    <mxGeometry relative="1" as="geometry">
                        <mxPoint x="1270" y="4570" as="targetPoint"/>
                        <mxPoint x="940" y="4530" as="sourcePoint"/>
                        <Array as="points">
                            <mxPoint x="940" y="4570"/>
                        </Array>
                    </mxGeometry>
                </mxCell>
                <mxCell id="575" value="&lt;span style=&quot;font-size: 20px;&quot;&gt;login siswa&lt;/span&gt;" style="rounded=1;whiteSpace=wrap;html=1;labelBackgroundColor=#000000;strokeColor=#F0F0F0;strokeWidth=2;fontSize=14;" parent="1" vertex="1">
                    <mxGeometry x="850" y="4460" width="190" height="60" as="geometry"/>
                </mxCell>
                <mxCell id="588" style="edgeStyle=none;html=1;entryX=1;entryY=0.5;entryDx=0;entryDy=0;fontSize=20;exitX=0;exitY=0.5;exitDx=0;exitDy=0;" parent="1" source="577" target="570" edge="1">
                    <mxGeometry relative="1" as="geometry">
                        <mxPoint x="1730" y="4290" as="sourcePoint"/>
                        <Array as="points">
                            <mxPoint x="1670" y="4260"/>
                            <mxPoint x="1670" y="4490"/>
                        </Array>
                    </mxGeometry>
                </mxCell>
                <mxCell id="589" style="edgeStyle=none;html=1;entryX=1;entryY=0.5;entryDx=0;entryDy=0;fontSize=20;" parent="1" source="577" target="579" edge="1">
                    <mxGeometry relative="1" as="geometry">
                        <Array as="points">
                            <mxPoint x="1830" y="4690"/>
                        </Array>
                    </mxGeometry>
                </mxCell>
                <mxCell id="577" value="&lt;span style=&quot;font-size: 20px;&quot;&gt;login admin&lt;/span&gt;" style="rounded=1;whiteSpace=wrap;html=1;labelBackgroundColor=#000000;strokeColor=#F0F0F0;strokeWidth=2;fontSize=14;" parent="1" vertex="1">
                    <mxGeometry x="1730" y="4230" width="190" height="60" as="geometry"/>
                </mxCell>
                <mxCell id="579" value="&lt;span style=&quot;font-size: 20px;&quot;&gt;view dashboard admin&lt;/span&gt;" style="rounded=1;whiteSpace=wrap;html=1;labelBackgroundColor=#000000;strokeColor=#F0F0F0;strokeWidth=2;fontSize=14;" parent="1" vertex="1">
                    <mxGeometry x="1280" y="4660" width="190" height="60" as="geometry"/>
                </mxCell>
                <mxCell id="596" style="edgeStyle=none;html=1;entryX=0.5;entryY=1;entryDx=0;entryDy=0;fontSize=20;" parent="1" source="580" target="579" edge="1">
                    <mxGeometry relative="1" as="geometry">
                        <Array as="points">
                            <mxPoint x="1375" y="4750"/>
                        </Array>
                    </mxGeometry>
                </mxCell>
                <mxCell id="636" style="edgeStyle=orthogonalEdgeStyle;html=1;fontSize=20;" parent="1" source="580" target="627" edge="1">
                    <mxGeometry relative="1" as="geometry">
                        <mxPoint x="1825" y="5560" as="targetPoint"/>
                        <Array as="points">
                            <mxPoint x="1830" y="5520"/>
                        </Array>
                    </mxGeometry>
                </mxCell>
                <mxCell id="580" value="&lt;span style=&quot;font-size: 20px;&quot;&gt;CRUDS&lt;/span&gt;" style="rounded=1;whiteSpace=wrap;html=1;labelBackgroundColor=#000000;strokeColor=#F0F0F0;strokeWidth=2;fontSize=14;" parent="1" vertex="1">
                    <mxGeometry x="1730" y="4720" width="190" height="60" as="geometry"/>
                </mxCell>
                <mxCell id="599" style="edgeStyle=none;html=1;entryX=0;entryY=0.5;entryDx=0;entryDy=0;fontSize=20;" parent="1" source="582" target="583" edge="1">
                    <mxGeometry relative="1" as="geometry"/>
                </mxCell>
                <mxCell id="621" style="edgeStyle=orthogonalEdgeStyle;html=1;fontSize=20;" parent="1" source="582" target="620" edge="1">
                    <mxGeometry relative="1" as="geometry">
                        <Array as="points">
                            <mxPoint x="945" y="4990"/>
                        </Array>
                    </mxGeometry>
                </mxCell>
                <mxCell id="582" value="&lt;span style=&quot;font-size: 20px;&quot;&gt;input data diri&lt;br&gt;siswa&lt;br&gt;&lt;/span&gt;" style="rounded=1;whiteSpace=wrap;html=1;labelBackgroundColor=#000000;strokeColor=#F0F0F0;strokeWidth=2;fontSize=14;" parent="1" vertex="1">
                    <mxGeometry x="850" y="4800" width="190" height="60" as="geometry"/>
                </mxCell>
                <mxCell id="583" value="&lt;span style=&quot;font-size: 20px;&quot;&gt;view form &lt;br&gt;data siswa&lt;/span&gt;" style="rounded=1;whiteSpace=wrap;html=1;labelBackgroundColor=#000000;strokeColor=#F0F0F0;strokeWidth=2;fontSize=14;" parent="1" vertex="1">
                    <mxGeometry x="1280" y="4800" width="190" height="60" as="geometry"/>
                </mxCell>
                <mxCell id="598" style="edgeStyle=none;html=1;fontSize=20;entryX=0.5;entryY=0;entryDx=0;entryDy=0;" parent="1" target="582" edge="1">
                    <mxGeometry relative="1" as="geometry">
                        <mxPoint x="1380" y="4610" as="sourcePoint"/>
                        <mxPoint x="960" y="4800" as="targetPoint"/>
                        <Array as="points">
                            <mxPoint x="1380" y="4630"/>
                            <mxPoint x="945" y="4630"/>
                        </Array>
                    </mxGeometry>
                </mxCell>
                <mxCell id="585" value="&lt;span style=&quot;font-size: 20px;&quot;&gt;halaman utama&amp;nbsp;&lt;/span&gt;" style="rounded=1;whiteSpace=wrap;html=1;labelBackgroundColor=#000000;strokeColor=#F0F0F0;strokeWidth=2;fontSize=14;" parent="1" vertex="1">
                    <mxGeometry x="1280" y="4540" width="190" height="60" as="geometry"/>
                </mxCell>
                <mxCell id="612" style="edgeStyle=orthogonalEdgeStyle;html=1;fontSize=20;" parent="1" source="600" target="606" edge="1">
                    <mxGeometry relative="1" as="geometry"/>
                </mxCell>
                <mxCell id="600" value="&lt;span style=&quot;font-size: 20px;&quot;&gt;view form&lt;br&gt;data nilai&lt;br&gt;&lt;/span&gt;" style="rounded=1;whiteSpace=wrap;html=1;labelBackgroundColor=#000000;strokeColor=#F0F0F0;strokeWidth=2;fontSize=14;" parent="1" vertex="1">
                    <mxGeometry x="1280.01" y="5150" width="190" height="60" as="geometry"/>
                </mxCell>
                <mxCell id="602" style="edgeStyle=none;html=1;fontSize=20;" parent="1" source="601" target="600" edge="1">
                    <mxGeometry relative="1" as="geometry"/>
                </mxCell>
                <mxCell id="601" value="&lt;span style=&quot;font-size: 20px;&quot;&gt;input nilai siswa&amp;nbsp;&lt;br&gt;&lt;/span&gt;" style="rounded=1;whiteSpace=wrap;html=1;labelBackgroundColor=#000000;strokeColor=#F0F0F0;strokeWidth=2;fontSize=14;" parent="1" vertex="1">
                    <mxGeometry x="870" y="5150" width="190" height="60" as="geometry"/>
                </mxCell>
                <mxCell id="625" style="edgeStyle=orthogonalEdgeStyle;html=1;entryX=0.998;entryY=0.397;entryDx=0;entryDy=0;entryPerimeter=0;fontSize=20;" parent="1" source="606" target="600" edge="1">
                    <mxGeometry relative="1" as="geometry">
                        <Array as="points">
                            <mxPoint x="1530" y="5320"/>
                            <mxPoint x="1530" y="5174"/>
                        </Array>
                    </mxGeometry>
                </mxCell>
                <mxCell id="626" style="edgeStyle=orthogonalEdgeStyle;html=1;fontSize=20;" parent="1" source="606" edge="1">
                    <mxGeometry relative="1" as="geometry">
                        <mxPoint x="1375.0150000000003" y="5490" as="targetPoint"/>
                    </mxGeometry>
                </mxCell>
                <mxCell id="606" value="" style="rhombus;whiteSpace=wrap;html=1;labelBackgroundColor=#000000;strokeColor=#F0F0F0;strokeWidth=2;fontSize=20;fillColor=default;" parent="1" vertex="1">
                    <mxGeometry x="1310.64" y="5260" width="128.75" height="120" as="geometry"/>
                </mxCell>
                <mxCell id="610" value="cek nilai ??" style="text;strokeColor=none;align=center;fillColor=none;html=1;verticalAlign=middle;whiteSpace=wrap;rounded=0;labelBackgroundColor=#000000;strokeWidth=2;fontSize=20;" parent="1" vertex="1">
                    <mxGeometry x="1170" y="5305" width="100" height="30" as="geometry"/>
                </mxCell>
                <mxCell id="622" style="edgeStyle=orthogonalEdgeStyle;html=1;entryX=1;entryY=0.5;entryDx=0;entryDy=0;fontSize=20;" parent="1" source="620" target="583" edge="1">
                    <mxGeometry relative="1" as="geometry">
                        <Array as="points">
                            <mxPoint x="1530" y="4990"/>
                            <mxPoint x="1530" y="4830"/>
                        </Array>
                    </mxGeometry>
                </mxCell>
                <mxCell id="624" style="edgeStyle=orthogonalEdgeStyle;html=1;fontSize=20;" parent="1" source="620" target="600" edge="1">
                    <mxGeometry relative="1" as="geometry"/>
                </mxCell>
                <mxCell id="620" value="" style="rhombus;whiteSpace=wrap;html=1;labelBackgroundColor=#000000;strokeColor=#F0F0F0;strokeWidth=2;fontSize=20;fillColor=default;" parent="1" vertex="1">
                    <mxGeometry x="1310.63" y="4930" width="128.75" height="120" as="geometry"/>
                </mxCell>
                <mxCell id="623" value="cek data&lt;br&gt;(required)" style="text;strokeColor=none;align=center;fillColor=none;html=1;verticalAlign=middle;whiteSpace=wrap;rounded=0;labelBackgroundColor=#000000;strokeWidth=2;fontSize=20;" parent="1" vertex="1">
                    <mxGeometry x="1160" y="4935" width="100" height="30" as="geometry"/>
                </mxCell>
                <mxCell id="627" value="&lt;span style=&quot;font-size: 20px;&quot;&gt;hasil kelompok&lt;br&gt;rekomendasi&lt;br&gt;&lt;/span&gt;" style="rounded=1;whiteSpace=wrap;html=1;labelBackgroundColor=#000000;strokeColor=#F0F0F0;strokeWidth=2;fontSize=14;" parent="1" vertex="1">
                    <mxGeometry x="1280.02" y="5490" width="190" height="60" as="geometry"/>
                </mxCell>
                <mxCell id="628" value="redirect back" style="text;strokeColor=none;align=center;fillColor=none;html=1;verticalAlign=middle;whiteSpace=wrap;rounded=0;labelBackgroundColor=#000000;strokeWidth=2;fontSize=20;" parent="1" vertex="1">
                    <mxGeometry x="1560" y="5230" width="100" height="30" as="geometry"/>
                </mxCell>
                <mxCell id="629" value="redirect back" style="text;strokeColor=none;align=center;fillColor=none;html=1;verticalAlign=middle;whiteSpace=wrap;rounded=0;labelBackgroundColor=#000000;strokeWidth=2;fontSize=20;" parent="1" vertex="1">
                    <mxGeometry x="1550" y="4900" width="100" height="30" as="geometry"/>
                </mxCell>
                <mxCell id="635" style="edgeStyle=orthogonalEdgeStyle;html=1;entryX=0.5;entryY=1;entryDx=0;entryDy=0;fontSize=20;" parent="1" source="634" target="627" edge="1">
                    <mxGeometry relative="1" as="geometry"/>
                </mxCell>
                <mxCell id="634" value="hasil" style="ellipse;whiteSpace=wrap;html=1;aspect=fixed;labelBackgroundColor=#000000;strokeColor=#F0F0F0;strokeWidth=2;fontSize=20;fillColor=default;" parent="1" vertex="1">
                    <mxGeometry x="1335" y="5660" width="80" height="80" as="geometry"/>
                </mxCell>
                <mxCell id="642" style="edgeStyle=none;html=1;entryX=0.469;entryY=0;entryDx=0;entryDy=0;entryPerimeter=0;" parent="1" source="637" target="425" edge="1">
                    <mxGeometry relative="1" as="geometry"/>
                </mxCell>
                <mxCell id="637" value="KELOMPOK 1" style="shape=parallelogram;perimeter=parallelogramPerimeter;whiteSpace=wrap;html=1;fixedSize=1;fontSize=16;rounded=1;" parent="1" vertex="1">
                    <mxGeometry x="-80" y="3430" width="160" height="60" as="geometry"/>
                </mxCell>
                <mxCell id="639" value="" style="edgeStyle=none;html=1;fontSize=16;endArrow=none;" parent="1" source="389" target="638" edge="1">
                    <mxGeometry relative="1" as="geometry">
                        <mxPoint x="-2.1052631578945693" y="3670" as="sourcePoint"/>
                        <mxPoint x="-0.3947368421052033" y="3800" as="targetPoint"/>
                    </mxGeometry>
                </mxCell>
                <mxCell id="638" value="KELOMPOK 4" style="shape=parallelogram;perimeter=parallelogramPerimeter;whiteSpace=wrap;html=1;fixedSize=1;rounded=1;fontSize=14;fontStyle=1" parent="1" vertex="1">
                    <mxGeometry x="-77.5" y="3700" width="155" height="60" as="geometry"/>
                </mxCell>
                <mxCell id="652" value="" style="rounded=0;whiteSpace=wrap;html=1;" parent="1" vertex="1">
                    <mxGeometry x="550" y="1180" width="810" height="260" as="geometry"/>
                </mxCell>
                <mxCell id="653" value="&lt;font style=&quot;font-size: 16px;&quot;&gt;aplikasi sistem&lt;/font&gt;" style="ellipse;whiteSpace=wrap;html=1;aspect=fixed;fontSize=20;" parent="1" vertex="1">
                    <mxGeometry x="905" y="1290" width="130" height="130" as="geometry"/>
                </mxCell>
                <mxCell id="654" style="edgeStyle=orthogonalEdgeStyle;curved=1;html=1;fontSize=16;" parent="1" source="655" target="653" edge="1">
                    <mxGeometry relative="1" as="geometry"/>
                </mxCell>
                <mxCell id="655" value="Guru" style="rounded=1;whiteSpace=wrap;html=1;fontSize=16;" parent="1" vertex="1">
                    <mxGeometry x="580" y="1325" width="120" height="60" as="geometry"/>
                </mxCell>
                <mxCell id="656" style="edgeStyle=orthogonalEdgeStyle;curved=1;html=1;fontSize=16;" parent="1" source="657" target="653" edge="1">
                    <mxGeometry relative="1" as="geometry"/>
                </mxCell>
                <mxCell id="657" value="siswa" style="rounded=1;whiteSpace=wrap;html=1;fontSize=16;" parent="1" vertex="1">
                    <mxGeometry x="1200" y="1325" width="120" height="60" as="geometry"/>
                </mxCell>
                <mxCell id="658" value="cek data siswa" style="text;strokeColor=none;align=center;fillColor=none;html=1;verticalAlign=middle;whiteSpace=wrap;rounded=0;fontSize=16;" parent="1" vertex="1">
                    <mxGeometry x="730" y="1215" width="100" height="50" as="geometry"/>
                </mxCell>
                <mxCell id="659" value="filter data" style="text;strokeColor=none;align=center;fillColor=none;html=1;verticalAlign=middle;whiteSpace=wrap;rounded=0;fontSize=16;" parent="1" vertex="1">
                    <mxGeometry x="1090" y="1215" width="90" height="40" as="geometry"/>
                </mxCell>
                <mxCell id="660" value="gambar level o" style="rounded=1;whiteSpace=wrap;html=1;fontSize=16;" parent="1" vertex="1">
                    <mxGeometry x="861.25" y="1230" width="212.5" height="50" as="geometry"/>
                </mxCell>
                <mxCell id="661" value="sistem rekomendasi&amp;nbsp; pemilihan mata pelajaran Berbasis Weight Product" style="rounded=0;whiteSpace=wrap;html=1;fontSize=16;" parent="1" vertex="1">
                    <mxGeometry x="750" y="1100" width="440" height="60" as="geometry"/>
                </mxCell>
                <mxCell id="662" style="edgeStyle=none;html=1;fontSize=16;" parent="1" source="664" target="667" edge="1">
                    <mxGeometry relative="1" as="geometry"/>
                </mxCell>
                <mxCell id="663" style="edgeStyle=orthogonalEdgeStyle;html=1;fontSize=14;" parent="1" source="664" target="672" edge="1">
                    <mxGeometry relative="1" as="geometry">
                        <Array as="points">
                            <mxPoint x="620" y="1890"/>
                        </Array>
                    </mxGeometry>
                </mxCell>
                <mxCell id="664" value="Guru" style="rounded=1;whiteSpace=wrap;html=1;fontSize=16;" parent="1" vertex="1">
                    <mxGeometry x="560" y="1660" width="120" height="60" as="geometry"/>
                </mxCell>
                <mxCell id="665" style="edgeStyle=none;html=1;fontSize=15;" parent="1" source="667" target="669" edge="1">
                    <mxGeometry relative="1" as="geometry"/>
                </mxCell>
                <mxCell id="666" style="edgeStyle=none;html=1;entryX=0.5;entryY=0;entryDx=0;entryDy=0;fontSize=16;" parent="1" source="667" target="672" edge="1">
                    <mxGeometry relative="1" as="geometry"/>
                </mxCell>
                <mxCell id="667" value="&lt;font style=&quot;font-size: 14px;&quot;&gt;proses data siswa&lt;/font&gt;" style="ellipse;whiteSpace=wrap;html=1;aspect=fixed;fontSize=16;" parent="1" vertex="1">
                    <mxGeometry x="905" y="1630" width="130" height="130" as="geometry"/>
                </mxCell>
                <mxCell id="668" style="edgeStyle=none;html=1;entryX=1;entryY=0;entryDx=0;entryDy=0;exitX=0.5;exitY=1;exitDx=0;exitDy=0;" parent="1" source="669" target="672" edge="1">
                    <mxGeometry relative="1" as="geometry">
                        <Array as="points">
                            <mxPoint x="1240" y="1840"/>
                        </Array>
                    </mxGeometry>
                </mxCell>
                <mxCell id="669" value="TB siswa" style="rounded=1;whiteSpace=wrap;html=1;fontSize=16;" parent="1" vertex="1">
                    <mxGeometry x="1180" y="1660" width="120" height="60" as="geometry"/>
                </mxCell>
                <mxCell id="670" style="edgeStyle=none;html=1;fontSize=16;" parent="1" source="672" target="685" edge="1">
                    <mxGeometry relative="1" as="geometry"/>
                </mxCell>
                <mxCell id="671" style="edgeStyle=none;html=1;entryX=0;entryY=0.5;entryDx=0;entryDy=0;" parent="1" source="672" target="681" edge="1">
                    <mxGeometry relative="1" as="geometry"/>
                </mxCell>
                <mxCell id="672" value="proses data nilai" style="ellipse;whiteSpace=wrap;html=1;aspect=fixed;fontSize=15;" parent="1" vertex="1">
                    <mxGeometry x="905" y="1820" width="130" height="130" as="geometry"/>
                </mxCell>
                <mxCell id="694" style="edgeStyle=none;html=1;" parent="1" source="674" target="669" edge="1">
                    <mxGeometry relative="1" as="geometry"/>
                </mxCell>
                <mxCell id="674" value="TB mata_pelajaran" style="rounded=1;whiteSpace=wrap;html=1;fontSize=16;" parent="1" vertex="1">
                    <mxGeometry x="1180" y="1485" width="120" height="60" as="geometry"/>
                </mxCell>
                <mxCell id="675" style="edgeStyle=none;html=1;fontSize=15;" parent="1" source="676" target="679" edge="1">
                    <mxGeometry relative="1" as="geometry"/>
                </mxCell>
                <mxCell id="676" value="Guru" style="rounded=1;whiteSpace=wrap;html=1;fontSize=15;" parent="1" vertex="1">
                    <mxGeometry x="560" y="1485" width="120" height="60" as="geometry"/>
                </mxCell>
                <mxCell id="677" style="edgeStyle=none;html=1;fontSize=15;" parent="1" source="679" target="674" edge="1">
                    <mxGeometry relative="1" as="geometry"/>
                </mxCell>
                <mxCell id="678" style="edgeStyle=none;html=1;entryX=0.5;entryY=0;entryDx=0;entryDy=0;fontSize=16;" parent="1" source="679" target="667" edge="1">
                    <mxGeometry relative="1" as="geometry"/>
                </mxCell>
                <mxCell id="679" value="Proses data mata pelajaran" style="ellipse;whiteSpace=wrap;html=1;aspect=fixed;fontSize=15;" parent="1" vertex="1">
                    <mxGeometry x="905" y="1450" width="130" height="130" as="geometry"/>
                </mxCell>
                <mxCell id="680" style="edgeStyle=orthogonalEdgeStyle;html=1;fontSize=14;" parent="1" source="681" target="685" edge="1">
                    <mxGeometry relative="1" as="geometry">
                        <Array as="points">
                            <mxPoint x="1320" y="2080"/>
                        </Array>
                    </mxGeometry>
                </mxCell>
                <mxCell id="681" value="tb&lt;br&gt;niliai_siswa" style="rounded=1;whiteSpace=wrap;html=1;fontSize=16;" parent="1" vertex="1">
                    <mxGeometry x="1270" y="1855" width="120" height="60" as="geometry"/>
                </mxCell>
                <mxCell id="682" value="input data siswa" style="text;strokeColor=none;align=center;fillColor=none;html=1;verticalAlign=middle;whiteSpace=wrap;rounded=0;fontSize=14;" parent="1" vertex="1">
                    <mxGeometry x="730" y="1630" width="110" height="50" as="geometry"/>
                </mxCell>
                <mxCell id="683" value="menyimpan data" style="text;strokeColor=none;align=center;fillColor=none;html=1;verticalAlign=middle;whiteSpace=wrap;rounded=0;fontSize=14;" parent="1" vertex="1">
                    <mxGeometry x="1100" y="1460" width="110" height="50" as="geometry"/>
                </mxCell>
                <mxCell id="684" style="edgeStyle=orthogonalEdgeStyle;html=1;fontSize=14;" parent="1" source="685" target="690" edge="1">
                    <mxGeometry relative="1" as="geometry">
                        <Array as="points">
                            <mxPoint x="790" y="2080"/>
                            <mxPoint x="790" y="2080"/>
                        </Array>
                    </mxGeometry>
                </mxCell>
                <mxCell id="685" value="hasil&lt;br&gt;kelompok nilai" style="ellipse;whiteSpace=wrap;html=1;aspect=fixed;fontSize=15;" parent="1" vertex="1">
                    <mxGeometry x="905" y="2010" width="130" height="130" as="geometry"/>
                </mxCell>
                <mxCell id="686" value="input nilai siswa" style="text;strokeColor=none;align=center;fillColor=none;html=1;verticalAlign=middle;whiteSpace=wrap;rounded=0;fontSize=14;" parent="1" vertex="1">
                    <mxGeometry x="700" y="1890" width="110" height="50" as="geometry"/>
                </mxCell>
                <mxCell id="687" value="menyimpan data" style="text;strokeColor=none;align=center;fillColor=none;html=1;verticalAlign=middle;whiteSpace=wrap;rounded=0;fontSize=14;" parent="1" vertex="1">
                    <mxGeometry x="1090" y="1640" width="110" height="50" as="geometry"/>
                </mxCell>
                <mxCell id="688" value="menyimpan data" style="text;strokeColor=none;align=center;fillColor=none;html=1;verticalAlign=middle;whiteSpace=wrap;rounded=0;fontSize=14;" parent="1" vertex="1">
                    <mxGeometry x="1100" y="1890" width="110" height="50" as="geometry"/>
                </mxCell>
                <mxCell id="689" value="memproses hasil" style="text;strokeColor=none;align=center;fillColor=none;html=1;verticalAlign=middle;whiteSpace=wrap;rounded=0;fontSize=14;" parent="1" vertex="1">
                    <mxGeometry x="780" y="2040" width="60" height="30" as="geometry"/>
                </mxCell>
                <mxCell id="690" value="TB rekomendasi" style="rounded=0;whiteSpace=wrap;html=1;fontSize=14;" parent="1" vertex="1">
                    <mxGeometry x="590" y="2045" width="120" height="60" as="geometry"/>
                </mxCell>
                <mxCell id="691" value="pembobotan nilai" style="text;strokeColor=none;align=center;fillColor=none;html=1;verticalAlign=middle;whiteSpace=wrap;rounded=0;fontSize=14;" parent="1" vertex="1">
                    <mxGeometry x="1150" y="2040" width="60" height="30" as="geometry"/>
                </mxCell>
                <mxCell id="692" value="DATA&amp;nbsp; &amp;nbsp; &amp;nbsp; &amp;nbsp; &amp;nbsp; &amp;nbsp; &amp;nbsp; &amp;nbsp;FLOW&amp;nbsp; &amp;nbsp; &amp;nbsp; &amp;nbsp; &amp;nbsp; DIAGRAM" style="rounded=0;whiteSpace=wrap;html=1;fontSize=14;" parent="1" vertex="1">
                    <mxGeometry x="750" y="1020" width="440" height="60" as="geometry"/>
                </mxCell>
                <mxCell id="693" value="input mata pelajaran" style="text;strokeColor=none;align=center;fillColor=none;html=1;verticalAlign=middle;whiteSpace=wrap;rounded=0;fontSize=14;" parent="1" vertex="1">
                    <mxGeometry x="730" y="1460" width="110" height="50" as="geometry"/>
                </mxCell>
                <mxCell id="695" value="join table&amp;nbsp;" style="text;strokeColor=none;align=center;fillColor=none;html=1;verticalAlign=middle;whiteSpace=wrap;rounded=0;fontSize=14;" parent="1" vertex="1">
                    <mxGeometry x="1130" y="1570" width="110" height="50" as="geometry"/>
                </mxCell>
            </root>
        </mxGraphModel>
    </diagram>
</mxfile>